<svg xmlns="http://www.w3.org/2000/svg" xmlns:xlink="http://www.w3.org/1999/xlink" xml:space="preserve" width="1920" height="1080">
	<defs>
		<linearGradient id="b">
			<stop offset="0" style="stop-color:#1c1820;stop-opacity:1" />
			<stop offset="1" style="stop-color:#32055a;stop-opacity:1" />
		</linearGradient>
		<linearGradient id="c" x1="0" x2="1" y1="0" y2="0" gradientTransform="rotate(45 -157.229 44.374)scale(57.78836)" gradientUnits="userSpaceOnUse" spreadMethod="pad">
			<stop offset="0" style="stop-opacity:1;stop-color:#03a9f4" />
			<stop offset=".774" style="stop-opacity:1;stop-color:#673ab7" />
			<stop offset="1" style="stop-opacity:1;stop-color:#673ab7" />
		</linearGradient>
		<linearGradient id="d" x1="0" x2="1" y1="0" y2="0" gradientTransform="rotate(45 -159.209 49.155)scale(49.86735)" gradientUnits="userSpaceOnUse" spreadMethod="pad">
			<stop offset="0" style="stop-opacity:1;stop-color:#03a9f4" />
			<stop offset=".774" style="stop-opacity:1;stop-color:#673ab7" />
			<stop offset="1" style="stop-opacity:1;stop-color:#673ab7" />
		</linearGradient>
		<linearGradient id="a" x1="0" x2="1" y1="0" y2="0" gradientTransform="matrix(181.9904 0 0 -181.9904 .995 91.357)" gradientUnits="userSpaceOnUse" spreadMethod="pad">
			<stop offset="0" style="stop-opacity:1;stop-color:#03a9f4" />
			<stop offset=".774" style="stop-opacity:1;stop-color:#673ab7" />
			<stop offset="1" style="stop-opacity:1;stop-color:#673ab7" />
		</linearGradient>
		<linearGradient id="e" x1="0" x2="1" y1="0" y2="0" gradientTransform="matrix(156.98763 0 0 -156.98763 13.497 91.357)" gradientUnits="userSpaceOnUse" spreadMethod="pad">
			<stop offset="0" style="stop-opacity:1;stop-color:#03a9f4" />
			<stop offset=".774" style="stop-opacity:1;stop-color:#673ab7" />
			<stop offset="1" style="stop-opacity:1;stop-color:#673ab7" />
		</linearGradient>
		<linearGradient xlink:href="#a" id="l" x1="0" x2="1" y1="0" y2="0" gradientTransform="matrix(181.9904 0 0 -181.9904 .995 91.357)" gradientUnits="userSpaceOnUse" spreadMethod="pad" />
		<linearGradient xlink:href="#b" id="f" x1="6109.649" x2="6124.351" y1="0" y2="1051.167" gradientTransform="matrix(.95433 0 0 .66181 -10650.628 -1080)" gradientUnits="userSpaceOnUse" />
		<linearGradient xlink:href="#a" id="g" x1="0" x2="1" y1="0" y2="0" gradientTransform="matrix(687.83774 0 0 -687.83774 4552.287 507.334)" gradientUnits="userSpaceOnUse" spreadMethod="pad" />
		<linearGradient xlink:href="#c" id="h" x1="0" x2="1" y1="0" y2="0" gradientTransform="rotate(45 -157.229 44.374)scale(57.78836)" gradientUnits="userSpaceOnUse" spreadMethod="pad" />
		<linearGradient xlink:href="#d" id="i" x1="0" x2="1" y1="0" y2="0" gradientTransform="rotate(45 -159.209 49.155)scale(49.86735)" gradientUnits="userSpaceOnUse" spreadMethod="pad" />
		<linearGradient xlink:href="#a" id="j" x1="0" x2="1" y1="0" y2="0" gradientTransform="matrix(64.20217 0 0 64.20217 -26.344 144.606)" gradientUnits="userSpaceOnUse" spreadMethod="pad" />
		<linearGradient xlink:href="#e" id="k" x1="0" x2="1" y1="0" y2="0" gradientTransform="matrix(55.38175 0 0 55.38175 -21.934 144.606)" gradientUnits="userSpaceOnUse" spreadMethod="pad" />
		<linearGradient xlink:href="#e" id="n" x1="0" x2="1" y1="0" y2="0" gradientTransform="matrix(55.38175 0 0 55.38175 -21.934 144.606)" gradientUnits="userSpaceOnUse" spreadMethod="pad" />
		<clipPath id="m" clipPathUnits="userSpaceOnUse" />
	</defs>
	<path d="M-5780-1080h1920V0h-1920z" style="fill:url(#f);fill-opacity:1;stroke:none;stroke-width:21.3261;stroke-linejoin:round" transform="rotate(180 -1930 0)" />
	<path d="m4672.01 172.425-14.885 12.746c-8.197 7.019-20.286 7.019-28.483 0l-14.884-12.746 12.745 14.885c7.019 8.197 7.019 20.285 0 28.483l-12.745 14.884 14.884-12.745c8.197-7.02 20.286-7.02 28.483 0l14.884 12.745-12.745-14.884c-7.019-8.198-7.019-20.286 0-28.483z" style="fill:#fff;fill-opacity:1;fill-rule:nonzero;stroke:none;stroke-width:.00747309" transform="translate(-3860)" />
	<path d="m4242.598 201.551-3.079 10.508a23.21 23.21 0 0 1-15.747 15.747l-10.508 3.08 10.508 3.08a23.21 23.21 0 0 1 15.747 15.747l3.08 10.507 3.078-10.507a23.21 23.21 0 0 1 15.749-15.748l10.506-3.08-10.506-3.079a23.21 23.21 0 0 1-15.749-15.747z" style="fill:#fff;fill-opacity:1;fill-rule:nonzero;stroke:none;stroke-width:.00970682" transform="translate(-3860)" />
	<path d="M4926.48 278.796c-55.754-1.318-113.897 43.923-166.267 94.941-51.014 52.367-96.256 110.51-94.938 166.264-1.318 55.757 43.924 113.898 94.938 166.267 52.37 51.012 110.513 96.256 166.267 94.936 55.755 1.318 113.895-43.924 166.265-94.936 51.011-52.37 96.256-110.51 94.935-166.267 1.32-55.754-43.924-113.897-94.935-166.264-51.627-50.291-108.854-94.97-163.882-94.967q-1.193.001-2.383.025" style="display:inline;fill:url(#g);stroke:#fff;stroke-width:44.9529;stroke-dasharray:none;stroke-opacity:1" transform="translate(-3682.767 -18.547)" />
	<g style="display:inline">
		<path d="M5.757 112.508c-6.851-.162-13.996 5.397-20.431 11.667-6.269 6.435-11.828 13.58-11.667 20.43-.161 6.852 5.398 13.997 11.667 20.432 6.435 6.269 13.58 11.828 20.431 11.666 6.852.162 13.996-5.397 20.431-11.666 6.269-6.435 11.829-13.58 11.666-20.431.163-6.852-5.397-13.996-11.666-20.431-6.344-6.18-13.376-11.67-20.138-11.67q-.147 0-.293.003" style="display:inline;fill:url(#h);stroke:none;stroke-width:.352778" transform="translate(1196.861 -655.317)scale(8.13779)" />
		<path d="M-11.873 126.975c-5.405 5.548-10.197 11.71-10.058 17.63-.139 5.921 4.653 12.083 10.058 17.631 5.548 5.405 11.71 10.196 17.63 10.057 5.92.14 12.082-4.652 17.631-10.057 5.405-5.548 10.196-11.71 10.057-17.63.14-5.92-4.652-12.083-10.057-17.631-5.549-5.405-11.71-10.196-17.63-10.057l-.253-.003c-5.843 0-11.909 4.732-17.378 10.06" style="display:inline;fill:url(#i);stroke:none;stroke-width:.352778" transform="translate(1196.861 -655.317)scale(8.13779)" />
		<path d="M-14.674 124.175c-6.269 6.435-11.828 13.58-11.667 20.43-.157 6.661 5.094 13.6 11.145 19.893 6.307-4.895 11.676-13.104 14.404-23.135 2.718-9.991 2.26-19.753-.666-27.158-4.521 2.096-9.02 5.882-13.216 9.97" style="display:inline;fill:url(#j);stroke:none;stroke-width:.352778" transform="translate(1196.861 -655.317)scale(8.13779)" />
		<path d="M-11.873 126.975c-5.405 5.548-10.197 11.71-10.058 17.63-.136 5.793 4.448 11.817 9.708 17.27 4.998-4.97 9.143-12.1 11.431-20.512 2.249-8.266 2.324-16.374.625-23.121-4.006 1.774-7.993 5.116-11.706 8.733" style="display:inline;fill:url(#k);stroke:none;stroke-width:.352778" transform="translate(1196.861 -655.317)scale(8.13779)" />
		<path d="M91.991.372c-19.422-.46-39.674 15.3-57.916 33.069C16.305 51.684.546 71.935 1.005 91.357c-.459 19.421 15.3 39.674 33.07 57.915 18.242 17.77 38.494 33.53 57.916 33.071 19.421.459 39.673-15.301 57.915-33.071 17.77-18.241 33.529-38.494 33.07-57.915.459-19.422-15.3-39.673-33.07-57.916C131.664 15.672 111.412-.087 91.991.372" clip-path="url(#m)" style="display:inline;opacity:.5;fill:url(#l);stroke:none" transform="matrix(2.87083 0 0 -2.87083 979.623 783.725)" />
		<path d="M33.445 144.606c.14 5.92-4.652 12.082-10.057 17.63-5.548 5.405-11.71 10.197-17.63 10.057-5.921.14-12.083-4.652-17.631-10.057-5.405-5.548-10.197-11.71-10.058-17.63-.139-5.921 4.653-12.083 10.058-17.631 5.548-5.405 11.71-10.196 17.63-10.057 5.92-.14 12.082 4.652 17.63 10.057 5.406 5.548 10.197 11.71 10.058 17.63" style="display:inline;opacity:.5;fill:url(#n);stroke:none;stroke-width:.352778" transform="translate(1196.861 -655.317)scale(8.13779)" />
		<path d="M5.757 161.218c-9.16 0-16.612-7.452-16.612-16.613s7.452-16.612 16.612-16.612 16.613 7.453 16.613 16.612c0 9.16-7.453 16.613-16.613 16.613" style="display:inline;opacity:.884211;mix-blend-mode:overlay;fill:#23c0ff;fill-opacity:1;fill-rule:nonzero;stroke:none;stroke-width:.352778" transform="translate(1196.861 -655.317)scale(8.13779)" />
		<path d="M18.842 144.606c0-7.227-5.858-13.085-13.085-13.085-7.226 0-13.084 5.858-13.084 13.085 0 7.226 5.858 13.084 13.084 13.084 7.227 0 13.085-5.858 13.085-13.084" style="display:inline;opacity:.918421;mix-blend-mode:soft-light;fill:#fefbff;fill-opacity:1;fill-rule:nonzero;stroke:none;stroke-width:.352778" transform="translate(1196.861 -655.317)scale(8.13779)" />
	</g>
	<path d="M4926.48 278.796c-55.754-1.318-113.897 43.923-166.267 94.941-51.014 52.367-96.256 110.51-94.938 166.264-1.318 55.757 43.924 113.898 94.938 166.267 52.37 51.012 110.513 96.256 166.267 94.936 55.755 1.318 113.895-43.924 166.265-94.936 51.011-52.37 96.256-110.51 94.935-166.267 1.32-55.754-43.924-113.897-94.935-166.264-51.627-50.291-108.854-94.97-163.882-94.967q-1.193.001-2.383.025" style="display:inline;opacity:.215071;fill:#000;fill-opacity:1;stroke:none;stroke-width:0;stroke-dasharray:none;stroke-opacity:1" transform="translate(-3682.767 -18.547)" />
	<g style="stroke:#000;stroke-width:25.3796;stroke-dasharray:none;stroke-opacity:1;paint-order:stroke fill markers">
		<text xml:space="preserve" x="5033.725" y="644.374" style="font-style:normal;font-variant:normal;font-weight:800;font-stretch:normal;font-size:125.518px;line-height:1;font-family:&quot;Monument Extended&quot;;-inkscape-font-specification:&quot;Monument Extended, Ultra-Bold&quot;;font-variant-ligatures:normal;font-variant-caps:normal;font-variant-numeric:normal;font-variant-east-asian:normal;letter-spacing:0;fill:#fefefe;fill-opacity:1;stroke:none;stroke-width:19.0347;stroke-linejoin:round;stroke-dasharray:none;stroke-opacity:1;paint-order:stroke fill markers" transform="matrix(.78804 0 0 .78804 -2823.81 123.356)">
			<tspan x="5033.725" y="644.374" style="fill:#fefefe;fill-opacity:1;stroke:none;stroke-width:19.0347;stroke-dasharray:none;stroke-opacity:1;paint-order:stroke fill markers">
				&apos;24
			</tspan>
		</text>
		<text xml:space="preserve" x="4858.941" y="549.304" style="font-style:normal;font-variant:normal;font-weight:800;font-stretch:normal;font-size:125.518px;line-height:1;font-family:&quot;Monument Extended&quot;;-inkscape-font-specification:&quot;Monument Extended, Ultra-Bold&quot;;font-variant-ligatures:normal;font-variant-caps:normal;font-variant-numeric:normal;font-variant-east-asian:normal;letter-spacing:0;fill:#fefefe;fill-opacity:1;stroke:none;stroke-width:19.0347;stroke-linejoin:round;stroke-dasharray:none;stroke-opacity:1;paint-order:stroke fill markers" transform="matrix(.78804 0 0 .78804 -2823.81 123.356)">
			<tspan x="4858.941" y="549.304" style="fill:#fefefe;fill-opacity:1;stroke:none;stroke-width:19.0347;stroke-dasharray:none;stroke-opacity:1;paint-order:stroke fill markers">
				GENIUS
			</tspan>
		</text>
		<text xml:space="preserve" x="4961.05" y="454.633" style="font-style:normal;font-variant:normal;font-weight:800;font-stretch:normal;font-size:125.518px;line-height:1;font-family:&quot;Monument Extended&quot;;-inkscape-font-specification:&quot;Monument Extended, Ultra-Bold&quot;;font-variant-ligatures:normal;font-variant-caps:normal;font-variant-numeric:normal;font-variant-east-asian:normal;letter-spacing:0;fill:#fefefe;fill-opacity:1;stroke:none;stroke-width:19.0347;stroke-linejoin:round;stroke-dasharray:none;stroke-opacity:1;paint-order:stroke fill markers" transform="matrix(.78804 0 0 .78804 -2823.81 123.356)">
			<tspan x="4961.05" y="454.633" style="fill:#fefefe;fill-opacity:1;stroke:none;stroke-width:19.0347;stroke-dasharray:none;stroke-opacity:1;paint-order:stroke fill markers">
				RAW
			</tspan>
		</text>
	</g>
	<g style="opacity:1;stroke:#361e60;stroke-opacity:1">
		<path d="M4786.093 587.535a416 416 0 0 0-31.759 23.88c-10.225 8.51-20.078 17.577-29.29 27.49-4.591 4.969-9.037 10.14-13.213 15.622-2.099 2.73-4.115 5.557-6.073 8.45-.947 1.475-1.933 2.92-2.838 4.44l-1.38 2.265-1.326 2.318c-1.741 3.117-3.41 6.322-4.86 9.707-1.465 3.374-2.808 6.868-3.86 10.569-1.068 3.691-1.894 7.556-2.328 11.606-.437 4.043-.483 8.28.048 12.598a48 48 0 0 0 3.407 12.859c1.747 4.167 4.108 8.09 6.863 11.58 2.75 3.501 5.891 6.552 9.19 9.182 3.3 2.638 6.751 4.88 10.252 6.842l2.636 1.415c.882.443 1.765.862 2.652 1.292.886.442 1.773.817 2.662 1.204.889.374 1.783.79 2.673 1.118l2.678 1.035c.893.34 1.783.63 2.678.945 1.79.646 3.57 1.155 5.36 1.719 7.144 2.1 14.265 3.579 21.343 4.676 1.776.302 3.531.505 5.3.757.885.131 1.762.218 2.638.302l2.633.263 5.272.52 2.64.25c.884.093 1.747.1 2.621.153l10.478.501c3.477.085 6.931.068 10.405.102l2.603.01c.868 0 1.738.012 2.594-.03l5.16-.17 5.166-.177c1.723-.056 3.45-.107 5.15-.24l10.256-.692 2.565-.182 2.545-.25 5.089-.509 5.09-.51 2.548-.256c.85-.09 1.687-.21 2.53-.314l10.111-1.302c3.382-.41 6.718-.96 10.066-1.482l10.045-1.572 9.973-1.808c3.32-.623 6.662-1.187 9.951-1.895l9.91-2.038c1.65-.346 3.308-.667 4.952-1.034l4.92-1.127 9.84-2.265c1.646-.367 3.276-.77 4.903-1.182l4.89-1.221 9.782-2.454 9.716-2.639 9.712-2.662 9.658-2.808c3.213-.955 6.442-1.872 9.64-2.867l9.592-2.997c51.116-16.095 100.93-35.723 149.425-58.17 48.48-22.48 95.655-47.83 140.97-76.407l16.9-10.877 16.688-11.223c11.076-7.563 21.985-15.404 32.757-23.462 21.499-16.18 42.408-33.32 62.142-52.069l3.694-3.524 3.654-3.579c2.45-2.365 4.822-4.837 7.22-7.264 4.746-4.935 9.443-9.929 14.002-15.1 4.543-5.19 8.99-10.489 13.278-15.976a267 267 0 0 0 12.301-17.092c3.904-5.91 7.586-12.06 10.885-18.564 3.295-6.5 6.261-13.34 8.51-20.685.302-.9.543-1.852.798-2.788.25-.94.513-1.867.744-2.818l.631-2.893c.102-.485.214-.958.303-1.45l.246-1.488c.714-3.919 1.037-8.063 1.03-12.262l-.09-3.175-.303-3.22c-.08-1.063-.306-2.154-.481-3.229l-.286-1.613c-.105-.538-.255-1.077-.385-1.614l-.411-1.608a17 17 0 0 0-.464-1.597q-.532-1.59-1.09-3.164c-.432-1.033-.883-2.06-1.341-3.079-.118-.253-.225-.51-.351-.76l-.397-.74-.802-1.473c-2.202-3.876-4.888-7.44-7.922-10.46a57 57 0 0 0-9.724-7.73c-.847-.548-1.715-1.01-2.571-1.511l-1.291-.735c-.43-.238-.87-.44-1.304-.661l-2.611-1.281c-.875-.39-1.755-.75-2.63-1.122-1.747-.778-3.515-1.343-5.271-1.984-.878-.321-1.762-.546-2.642-.823-.88-.259-1.76-.535-2.64-.774-7.038-1.88-14.03-2.992-20.951-3.636-6.919-.654-13.772-.851-20.561-.737-13.58.252-26.924 1.66-40.071 3.774-13.14 2.168-26.096 4.958-38.851 8.414 13.204-.537 26.345-.937 39.407-.668 13.05.253 26.024 1.031 38.675 2.793a187 187 0 0 1 18.596 3.498c6.034 1.488 11.888 3.308 17.308 5.602 5.388 2.324 10.332 5.129 14.286 8.42a35.5 35.5 0 0 1 5.048 5.247c1.4 1.83 2.416 3.759 3.2 5.722l.28.74.144.367c.041.124.068.255.103.383.134.513.286 1.014.434 1.514q.141.789.305 1.561c.068.252.092.524.116.795l.092.802c.028.269.077.528.092.8l.024.83c.01.559.083 1.086.032 1.667l-.053 1.7-.184 1.749c-.32 2.354-.75 4.762-1.518 7.244l-.257.922c-.092.31-.213.624-.316.934l-.633 1.867c-.231.624-.496 1.253-.738 1.879-.252.625-.476 1.25-.776 1.878-2.202 5.016-4.97 10.047-8.153 14.964-3.192 4.918-6.756 9.746-10.56 14.468-3.806 4.723-7.88 9.32-12.077 13.851-4.224 4.518-8.636 8.92-13.145 13.25-4.497 4.342-9.164 8.563-13.877 12.739-4.772 4.131-9.547 8.262-14.47 12.265-9.802 8.035-19.905 15.803-30.209 23.342a893 893 0 0 1-15.583 11.172c-2.617 1.84-5.267 3.64-7.9 5.463l-7.952 5.4c-10.64 7.158-21.453 14.102-32.353 20.929l-16.45 10.093-16.596 9.88c-44.484 25.996-90.406 49.72-137.228 71.475-46.841 21.71-94.625 41.455-143.195 58.595l-9.11 3.198c-3.039 1.067-6.099 2.042-9.146 3.073l-9.141 3.085-9.179 2.936-9.185 2.92-9.21 2.785-4.607 1.4c-1.534.471-3.07.935-4.614 1.36l-9.244 2.619-4.623 1.315c-1.54.437-3.089.83-4.631 1.247l-9.27 2.469c-3.09.854-6.193 1.56-9.293 2.327l-9.297 2.288c-12.412 2.807-24.86 5.542-37.31 7.637l-4.673.813-2.337.404-2.333.335-9.339 1.373c-1.56.252-3.11.419-4.663.594l-4.66.531-4.665.534c-1.557.19-3.095.251-4.644.394-12.421 1.23-24.695 1.394-36.717.876-5.971-.367-11.843-.99-17.46-2.016-5.592-1.054-10.947-2.508-15.703-4.47-4.732-1.977-8.849-4.463-11.896-7.43-3.062-2.973-5.147-6.437-6.31-10.767-1.17-4.317-1.208-9.478-.412-14.896.381-2.71 1.041-5.487 1.834-8.277.783-2.791 1.771-5.602 2.862-8.408 2.21-5.608 4.921-11.193 7.974-16.679a223 223 0 0 1 9.993-16.206c7.16-10.637 15.17-20.892 23.574-30.896 8.383-10.037 17.294-19.706 26.32-29.359" style="fill:#fff;fill-opacity:1;fill-rule:nonzero;stroke:#361e60;stroke-width:30;stroke-linecap:round;stroke-dasharray:none;stroke-opacity:1;paint-order:stroke fill markers" transform="translate(-3850.066 24.189)" />
	</g>
</svg>
